<svg
  viewBox="0 0 760 240"
  xmlns="http://www.w3.org/2000/svg"
  className="w-full h-auto"
  role="img"
  aria-label="Orientation versus frame comparison"
>
  <rect x="0" y="0" width="760" height="240" fill="#e6f0f9" />

  <rect x="20" y="20" width="340" height="200" fill="#f6fafd" stroke="#c8d8e8" />
  <text x="40" y="52" fontSize="16" fontWeight="700" fill="#050c18">
    Orientation only
  </text>
  <text x="40" y="74" fontSize="13" fill="#5a6e82">
    (Quaternion / Euler / Rotation matrix)
  </text>
  <line x1="120" y1="165" x2="235" y2="165" stroke="#4a9ec4" strokeWidth="4" />
  <line x1="120" y1="165" x2="94" y2="95" stroke="#1a4a72" strokeWidth="4" />
  <line x1="120" y1="165" x2="165" y2="102" stroke="#3d6a9e" strokeWidth="4" />
  <circle cx="120" cy="165" r="5" fill="#050c18" />
  <text x="132" y="184" fontSize="12" fill="#5a6e82">
    orientation, no position
  </text>

  <rect x="400" y="20" width="340" height="200" fill="#f6fafd" stroke="#c8d8e8" />
  <text x="420" y="52" fontSize="16" fontWeight="700" fill="#050c18">
    Full frame in space
  </text>
  <text x="420" y="74" fontSize="13" fill="#5a6e82">
    (Position + orientation)
  </text>
  <line x1="520" y1="165" x2="635" y2="165" stroke="#4a9ec4" strokeWidth="4" />
  <line x1="520" y1="165" x2="494" y2="95" stroke="#1a4a72" strokeWidth="4" />
  <line x1="520" y1="165" x2="565" y2="102" stroke="#3d6a9e" strokeWidth="4" />
  <circle cx="520" cy="165" r="5" fill="#050c18" />
  <text x="534" y="184" fontSize="12" fill="#5a6e82">
    t + rotation
  </text>

  <line x1="360" y1="120" x2="400" y2="120" stroke="#8a9bab" strokeWidth="2" />
  <text x="367" y="112" fontSize="12" fill="#5a6e82">
    + t
  </text>
</svg>
