<svg xmlns="http://www.w3.org/2000/svg" viewBox="-.05 -.05 4.1 4.1" width="1024" height="1024">
  <g stroke-linecap="round" stroke="white" stroke-linejoin="round" stroke-width=".075" >
    <g>
      <path d="M0 0v4h4v-3L2.6667 2z" fill="darkblue" />
      <path d="M0 4h3L3.7778 2.8333L2.6667 2z" fill="lightblue" />
      <path d="M0 0v4l4 -3v2z" fill="none" stroke="none" />
      <path d="M0 4h4" />
      <path d="M0 0L3.4 3.4" />
      <path d="M0 0L3 4" />
      <path d="M0 0L2 4"/>
      <path d="M0 0L1 4"/>
      <path d="M4 2.5v1.5h-1z" fill="none" stroke-linecap="round" />
      <path d="M4 1.5l-3 2.5"/>
      <path d="M4 2l-2 2"/>
    </g>
    <!-- <g fill="none" stroke-width="0.05" stroke="#aaaaff">
      <path d="M0 1 Q0 0 0.8 0.6 L1.866667 1.4 Q2.6667 2 1.866667 2.6 L0.8 3.4 Q0 4 0 3z"/>
      <path d="M3.066667 1.7 Q2.6667 2 3.066667 2.3 L3.6 2.7 Q4 3 4 2.5 L4 1.5 Q4 1 3.6 1.3 z"/>
      <path d="M4 2.5 L4 3.5 Q 4 4 3.5 4 Q 3 4 3.27735 3.583975" />
    </g> -->
  </g>
</svg>
